<?xml version="1.0" standalone="no"?>
<!DOCTYPE svg PUBLIC "-//W3C//DTD SVG 20010904//EN"
 "http://www.w3.org/TR/2001/REC-SVG-20010904/DTD/svg10.dtd">
<svg version="1.0" xmlns="http://www.w3.org/2000/svg"
 width="978.000000pt" height="702.000000pt" viewBox="0 0 978.000000 702.000000"
 preserveAspectRatio="xMidYMid meet">

<g transform="translate(0.000000,702.000000) scale(0.100000,-0.100000)"
fill="#000000" stroke="none">
<path d="M4282 6204 l-22 -15 0 -1253 c0 -1201 1 -1254 18 -1269 17 -16 134
-17 1480 -17 l1461 0 15 22 c13 18 16 52 16 160 l0 138 318 0 c271 0 321 2
340 16 l22 15 0 648 c0 543 -2 650 -14 667 -14 18 -31 19 -340 22 l-326 3 0
419 c0 407 -1 421 -20 440 -20 20 -33 20 -1473 20 -1298 0 -1455 -2 -1475 -16z
m2936 -16 c9 -9 12 -118 12 -430 l0 -418 -1112 0 c-877 0 -1118 -3 -1138 -13
l-25 -13 -3 -654 -2 -655 21 -17 c20 -17 89 -18 1140 -18 l1119 0 0 -139 c0
-104 -3 -141 -14 -150 -10 -8 -402 -10 -1472 -9 l-1459 3 -3 1249 c-1 915 1
1252 9 1262 16 19 2908 21 2927 2z m110 -1316 c8 -54 50 -52 -887 -52 -476 0
-871 4 -877 8 -17 11 -22 35 -12 55 8 16 58 17 891 15 l882 -3 3 -23z m0 -210
c8 -54 50 -52 -887 -52 -476 0 -871 4 -877 8 -17 11 -22 35 -12 55 8 16 58 17
891 15 l882 -3 3 -23z m-987 -182 c11 -6 19 -21 19 -35 0 -14 -8 -29 -19 -35
-26 -13 -745 -14 -770 0 -29 15 -33 38 -11 60 19 19 35 20 391 20 236 0 377
-4 390 -10z"/>
<path d="M4692 5987 c-108 -40 -167 -160 -130 -268 57 -165 272 -194 372 -51
40 57 48 149 18 209 -51 99 -161 145 -260 110z"/>
<path d="M3220 6079 c-15 -6 -58 -7 -111 -3 -100 7 -160 -8 -228 -56 -50 -37
-71 -76 -71 -133 0 -24 -7 -52 -15 -63 -25 -33 -18 -82 18 -133 19 -25 45 -67
60 -93 15 -25 39 -60 53 -77 24 -29 31 -31 87 -31 81 1 135 14 161 40 18 17
21 31 18 86 -3 87 8 106 56 98 34 -5 39 -3 50 21 7 14 12 37 12 50 0 13 11 36
24 52 35 42 46 68 46 108 0 91 -87 164 -160 134z"/>
<path d="M2712 5306 c-139 -83 -226 -150 -276 -217 -91 -118 -155 -336 -184
-621 l-8 -77 40 -5 c23 -3 90 -9 151 -13 l110 -8 17 -109 c50 -327 75 -707 61
-951 -5 -88 -8 -161 -7 -163 1 -2 16 4 34 13 18 9 33 15 35 13 1 -2 33 -149
70 -328 l68 -325 -153 -620 c-107 -433 -159 -624 -171 -635 -10 -8 -38 -47
-63 -87 l-45 -72 206 -133 c114 -73 213 -137 220 -141 19 -12 43 50 43 110 0
68 -32 128 -91 166 -27 18 -49 37 -49 43 0 6 104 287 230 624 l230 613 1 206
c1 113 4 195 6 181 12 -83 123 -1741 123 -1835 l0 -115 260 0 260 0 -6 33
c-10 55 -55 118 -103 144 -34 17 -60 23 -112 23 -37 0 -70 3 -72 8 -4 5 87
1749 105 2022 2 37 6 44 21 42 16 -3 18 2 12 45 -10 81 -13 88 -45 106 -59 35
-79 121 -39 171 l20 26 -101 447 c-55 247 -102 454 -103 462 -1 10 47 25 178
57 99 23 181 43 182 43 2 1 -22 72 -52 159 -45 130 -55 169 -56 227 -1 142
-57 275 -152 361 -27 24 -106 75 -176 114 l-127 70 -185 -1 -184 -1 -123 -72z"/>
<path d="M4842 2684 l-22 -15 0 -378 c0 -353 1 -379 18 -394 17 -16 134 -17
1480 -17 l1461 0 15 22 c14 19 16 74 16 390 0 355 -1 369 -20 388 -20 20 -33
20 -1473 20 -1298 0 -1455 -2 -1475 -16z m2936 -16 c19 -19 17 -741 -2 -757
-10 -8 -402 -10 -1472 -9 l-1459 3 -3 374 c-2 267 1 378 9 387 16 19 2908 21
2927 2z"/>
<path d="M4122 1624 l-22 -15 0 -378 c0 -353 1 -379 18 -394 17 -16 134 -17
1480 -17 l1461 0 15 22 c14 19 16 74 16 390 0 355 -1 369 -20 388 -20 20 -33
20 -1473 20 -1298 0 -1455 -2 -1475 -16z m2936 -16 c19 -19 17 -741 -2 -757
-10 -8 -402 -10 -1472 -9 l-1459 3 -3 374 c-2 267 1 378 9 387 16 19 2908 21
2927 2z"/>
</g>
</svg>
